HIERARCHY
ROOT Hips
{
 OFFSET 0.000000 0.000000 0.000000
 CHANNELS 6 Xposition Yposition Zposition Yrotation Xrotation Zrotation
 JOINT Chest
 {
  OFFSET 0.000000 10.858100 0.003500
  CHANNELS 3 Yrotation Xrotation Zrotation
  JOINT Chest2
  {
   OFFSET 0.000000 12.033100 -0.006300
   CHANNELS 3 Yrotation Xrotation Zrotation
   JOINT Chest3
   {
    OFFSET 0.000000 10.873000 0.000000
    CHANNELS 3 Yrotation Xrotation Zrotation
    JOINT Chest4
    {
     OFFSET 0.000000 10.873100 0.000000
     CHANNELS 3 Yrotation Xrotation Zrotation
     JOINT Neck
     {
      OFFSET 0.000000 15.287100 0.000000
      CHANNELS 3 Yrotation Xrotation Zrotation
      JOINT Head
      {
       OFFSET 0.000000 10.117800 -0.015000
       CHANNELS 3 Yrotation Xrotation Zrotation
       End Site
       {
        OFFSET 0.000000 19.391900 -0.007800
       }
      }
     }
     JOINT RightCollar
     {
      OFFSET -3.308500 8.525800 0.000000
      CHANNELS 3 Yrotation Xrotation Zrotation
      JOINT RightShoulder
      {
       OFFSET -15.326500 0.000000 0.000000
       CHANNELS 3 Yrotation Xrotation Zrotation
       JOINT RightElbow
       {
        OFFSET -32.728200 0.000000 0.000000
        CHANNELS 3 Yrotation Xrotation Zrotation
        JOINT RightWrist
        {
         OFFSET -26.775900 0.000000 0.000000
         CHANNELS 3 Yrotation Xrotation Zrotation
         End Site
         {
          OFFSET -20.037400 0.000000 0.000000
         }
        }
       }
      }
     }
     JOINT LeftCollar
     {
      OFFSET 3.308500 8.525800 0.000000
      CHANNELS 3 Yrotation Xrotation Zrotation
      JOINT LeftShoulder
      {
       OFFSET 15.326500 0.000000 0.000000
       CHANNELS 3 Yrotation Xrotation Zrotation
       JOINT LeftElbow
       {
        OFFSET 32.728200 0.000000 0.000000
        CHANNELS 3 Yrotation Xrotation Zrotation
        JOINT LeftWrist
        {
         OFFSET 26.775900 0.000000 0.000000
         CHANNELS 3 Yrotation Xrotation Zrotation
         End Site
         {
          OFFSET 20.037400 0.000000 0.000000
         }
        }
       }
      }
     }
    }
   }
  }
 }
 JOINT RightHip
 {
  OFFSET -8.790400 -0.016900 -0.001700
  CHANNELS 3 Yrotation Xrotation Zrotation
  JOINT RightKnee
  {
   OFFSET 0.000000 -45.668200 0.001600
   CHANNELS 3 Yrotation Xrotation Zrotation
   JOINT RightAnkle
   {
    OFFSET 0.000000 -44.710400 0.002800
    CHANNELS 3 Yrotation Xrotation Zrotation
    JOINT RightToe
    {
     OFFSET 0.000000 -7.040800 15.874000
     CHANNELS 3 Yrotation Xrotation Zrotation
     End Site
     {
      OFFSET 0.000000 -1.632900 6.946300
     }
    }
   }
  }
 }
 JOINT LeftHip
 {
  OFFSET 8.790400 -0.016900 -0.001700
  CHANNELS 3 Yrotation Xrotation Zrotation
  JOINT LeftKnee
  {
   OFFSET 0.000000 -45.668200 0.001600
   CHANNELS 3 Yrotation Xrotation Zrotation
   JOINT LeftAnkle
   {
    OFFSET 0.000000 -44.710400 0.002800
    CHANNELS 3 Yrotation Xrotation Zrotation
    JOINT LeftToe
    {
     OFFSET 0.000000 -7.040800 15.874000
     CHANNELS 3 Yrotation Xrotation Zrotation
     End Site
     {
      OFFSET 0.000000 -1.632900 6.946300
     }
    }
   }
  }
 }
}
MOTION
Frames: 11
Frame Time: 0.004167
1522.297500 158.787700 -751.062000 -14.318172 14.454849 -50.382101 4.321964 9.831103 14.261286 1.609312 4.499893 6.221714 1.609239 4.499972 6.221709 1.160665 3.391820 4.652146 9.812476 8.339591 0.973020 18.836352 -20.142036 -2.890502 9.128045 -3.875304 8.774178 10.820629 -26.362288 37.586237 46.466823 7.934509 10.317710 20.194979 5.538405 -20.265467 -5.374757 10.522974 1.319613 -8.549902 -31.982082 -31.401692 -37.820150 -0.389990 -33.782729 -2.496466 -27.271178 43.387997 9.315615 -35.746608 -8.774588 8.507518 34.814570 1.376676 -7.091238 -4.614529 -15.363467 0.357823 0.448190 0.138332 7.249187 -72.449679 -8.156179 69.472168 75.852545 44.644246 -15.535005 -17.772635 9.499387 0.215977 0.357919 -0.025417
1523.458300 158.731200 -751.279800 -14.008660 14.385035 -50.438482 4.316545 9.968202 14.292485 1.601872 4.561057 6.233788 1.601719 4.560932 6.233750 1.154249 3.437504 4.660978 9.783986 8.233265 0.989919 18.788897 -20.343914 -2.863060 9.119934 -3.929499 8.742299 10.851626 -26.306204 37.473539 46.961922 7.738752 10.421109 20.257225 5.514370 -20.286769 -5.370376 10.522042 1.400355 -8.393410 -32.180418 -31.557885 -37.799796 -0.198416 -33.587154 -1.892208 -27.048675 43.146471 9.374861 -35.792661 -8.655981 8.391180 34.894596 1.269878 -7.200352 -4.357197 -15.267929 0.255942 0.322375 0.093052 7.038390 -73.019164 -7.951508 71.634180 75.930472 46.948288 -15.624430 -17.665085 9.536856 0.178273 0.301774 -0.043745
1524.694300 158.695900 -751.463300 -13.715424 14.344080 -50.438684 4.308001 10.106959 14.300572 1.593223 4.622449 6.235563 1.593173 4.622470 6.235494 1.147110 3.483484 4.661976 9.760812 8.136897 1.012726 18.747021 -20.527735 -2.824428 9.114984 -3.975886 8.718630 10.937895 -26.249848 37.301367 47.431416 7.518301 10.464483 20.332171 5.467014 -20.301172 -5.401808 10.526358 1.464809 -8.247928 -32.367657 -31.730630 -37.720185 0.269508 -33.321340 -1.970974 -26.863884 42.994862 9.464943 -35.869621 -8.624209 8.654213 35.128454 1.426018 -7.531641 -4.621333 -15.239541 0.305478 0.392740 0.082960 4.858872 -73.673478 -5.676004 73.773847 76.319925 48.535225 -15.507939 -17.482986 9.614360 0.125209 0.215736 -0.044587
1525.988300 158.671600 -751.609500 -13.421750 14.329154 -50.396828 4.296212 10.246985 14.294409 1.583489 4.684259 6.231040 1.583531 4.684164 6.231064 1.139307 3.529805 4.658555 9.740117 8.054744 1.043551 18.704179 -20.686609 -2.768665 9.085337 -4.014366 8.701950 11.058851 -26.203424 37.109458 47.894295 7.292812 10.480852 20.407326 5.417517 -20.326012 -5.472507 10.532893 1.506713 -8.104222 -32.580594 -31.876997 -37.483167 0.802488 -33.191809 -2.839952 -26.520107 43.271572 9.250524 -35.994286 -8.491552 9.131413 35.693937 1.689658 -7.744432 -5.217574 -15.359537 0.323442 0.409370 0.111074 2.149929 -74.368167 -2.894890 76.307895 76.657134 50.409437 -15.495121 -17.118875 9.620945 0.079159 0.134479 -0.020853
1527.332100 158.665500 -751.743100 -13.113462 14.290093 -50.332135 4.296427 10.405828 14.286681 1.578601 4.754562 6.225213 1.578651 4.754698 6.225289 1.134920 3.582502 4.653950 9.717558 7.988779 1.081989 18.651230 -20.816836 -2.694239 9.014614 -4.035426 8.677943 11.163606 -26.210015 36.943838 48.374275 7.084710 10.524821 20.477691 5.392249 -20.369041 -5.549862 10.589134 1.554327 -8.084012 -32.848795 -31.896923 -37.139934 1.083921 -33.222222 -3.491427 -26.197026 43.865370 8.891156 -36.198402 -8.228295 9.634491 36.344004 1.863447 -7.857530 -5.541864 -15.575115 0.240376 0.285509 0.148263 -0.179255 -75.043438 -0.543122 78.546703 76.887852 52.109202 -15.332286 -16.545326 9.638831 0.011651 0.026478 -0.030204
1528.724700 158.684200 -751.888000 -12.811798 14.218442 -50.252159 4.317238 10.581729 14.277169 1.582322 4.833401 6.217947 1.582323 4.833383 6.218043 1.136864 3.641560 4.648175 9.693002 7.939451 1.125845 18.588886 -20.917571 -2.605091 8.942643 -4.064829 8.657556 11.216613 -26.270415 36.805099 48.861412 6.919186 10.606353 20.545648 5.386998 -20.441701 -5.665557 10.618704 1.551168 -8.200411 -33.044206 -31.773333 -36.808125 0.395749 -33.183775 -2.617215 -25.741042 44.091792 8.556252 -36.495629 -7.979823 10.215771 36.702682 2.027455 -7.967575 -5.245347 -15.900340 0.113793 0.100591 0.195093 -1.566507 -75.646147 0.933256 80.701467 76.880452 54.071614 -15.399321 -15.946633 9.584435 -0.013027 -0.009908 -0.047575
1529.845900 158.719600 -752.101100 -12.492567 14.161075 -50.118404 4.327571 10.765779 14.250902 1.581359 4.915244 6.203379 1.581373 4.915063 6.203364 1.135424 3.702887 4.636984 9.667715 7.911327 1.174681 18.519750 -20.980050 -2.502231 8.892047 -4.088792 8.660640 11.259367 -26.370357 36.648146 49.330746 6.788838 10.673536 20.619270 5.370092 -20.525454 -5.848789 10.608777 1.470498 -8.352572 -33.137407 -31.588543 -36.763442 -0.101425 -32.696210 -0.942052 -25.723458 43.484069 8.344185 -36.819364 -7.992521 10.448221 36.606235 2.134910 -7.704552 -4.402589 -16.439379 0.011784 -0.052986 0.251286 -2.580809 -76.199270 2.068722 82.288494 76.772635 55.570100 -15.454402 -15.142890 9.379120 -0.052315 -0.078483 -0.030309
1531.177100 158.739100 -752.339700 -12.170907 14.171905 -49.934956 4.307726 10.935001 14.207200 1.568110 4.989343 6.182042 1.568209 4.989356 6.182074 1.124863 3.758227 4.620854 9.646770 7.904706 1.227073 18.453358 -21.002901 -2.390182 8.853098 -4.096196 8.682146 11.309247 -26.509299 36.477201 49.776289 6.702427 10.740483 20.709748 5.348426 -20.631845 -6.011186 10.579215 1.378306 -8.563577 -33.114078 -31.455081 -36.797811 0.456838 -31.994741 -0.517320 -26.388473 42.620701 8.616513 -37.031700 -8.638292 9.895793 36.398573 2.131389 -7.158468 -3.411755 -16.656289 -0.097578 -0.182088 0.189231 -3.268785 -76.744190 2.813328 83.468754 76.522584 56.732324 -15.661239 -14.343215 9.254058 -0.047608 -0.064155 -0.058178
1532.488600 158.731400 -752.637200 -11.839514 14.259249 -49.715901 4.258903 11.077941 14.152758 1.543157 5.050919 6.156954 1.543149 5.050770 6.156959 1.105799 3.804177 4.601924 9.624837 7.925521 1.285002 18.378188 -20.975857 -2.262464 8.783308 -4.049144 8.695171 11.368598 -26.694772 36.352568 50.216678 6.657408 10.786834 20.814056 5.323656 -20.737666 -6.171384 10.538277 1.281348 -8.736996 -33.070850 -31.421152 -36.468882 0.670677 -31.640960 -1.278621 -26.107456 42.441438 9.208345 -37.106092 -9.541377 9.082000 36.132919 2.007159 -6.514731 -3.399903 -16.755957 0.136283 0.134941 0.164939 -4.445782 -77.245453 4.027774 84.606501 76.415972 57.696871 -15.901886 -13.850937 9.223848 0.009909 0.034889 -0.076049
1533.926500 158.699800 -752.912300 -11.485619 14.363581 -49.490670 4.204787 11.210034 14.099667 1.516192 5.107418 6.132873 1.516316 5.107429 6.132879 1.085139 3.846230 4.583895 9.596022 7.975078 1.349361 18.282466 -20.897415 -2.113645 8.663360 -3.974586 8.687971 11.424230 -26.916655 36.315402 50.638329 6.663198 10.817137 20.926774 5.304691 -20.831848 -6.361165 10.474358 1.171576 -8.891292 -33.138628 -31.356182 -36.077190 0.573329 -31.462044 -2.198990 -25.336528 42.689782 9.864245 -37.072239 -10.388250 7.898928 35.760554 1.325545 -5.865136 -2.943816 -16.429012 0.171364 0.190047 0.132923 -5.860239 -77.727638 5.455054 86.089091 76.503034 58.811293 -16.040928 -13.543927 9.289856 0.052469 0.097535 -0.043801
1534.885800 158.657100 -753.452700 -11.108373 14.453478 -49.265187 4.156169 11.340822 14.048140 1.491812 5.163500 6.109288 1.491725 5.163549 6.109383 1.066481 3.888124 4.566264 9.562476 8.051631 1.420320 18.170053 -20.770905 -1.945311 8.530953 -3.917533 8.690701 11.439028 -27.153933 36.345550 51.031205 6.737357 10.861193 21.043181 5.292838 -20.928216 -6.594871 10.391706 1.045155 -9.088700 -33.259746 -31.096247 -35.829131 0.189750 -31.425547 -2.520456 -24.596037 43.036485 10.348567 -36.991753 -10.959048 7.290145 35.490133 0.768044 -5.654383 -2.432489 -16.153997 0.127016 0.128419 0.141077 -6.856153 -78.190250 6.452304 87.551634 76.686874 59.902301 -16.084582 -13.173079 9.414540 0.052833 0.088145 -0.004174
